<?xml version="1.0" encoding="UTF-8" standalone="no"?><!DOCTYPE svg PUBLIC "-//W3C//DTD SVG 1.1//EN" "http://www.w3.org/Graphics/SVG/1.1/DTD/svg11.dtd"><!-- Generated by graphviz version 2.40.1 (20161225.0304)
 --><!-- Title: G Pages: 1 --><svg xmlns="http://www.w3.org/2000/svg" xmlns:xlink="http://www.w3.org/1999/xlink" width="169pt" height="433pt" viewBox="0.00 0.00 169.24 433.00">
<g id="graph0" class="graph" transform="scale(1 1) rotate(0) translate(4 429)">
<title>G</title>
<polygon fill="#ffffff" stroke="transparent" points="-4,4 -4,-429 165.2396,-429 165.2396,4 -4,4"/>
<g id="clust1" class="cluster">
<title>cluster_main</title>
<polygon fill="none" stroke="#000000" stroke-dasharray="5,2" points="15.2396,-8 15.2396,-417 153.2396,-417 153.2396,-8 15.2396,-8"/>
<text text-anchor="middle" x="84.2396" y="-400.4" font-family="Times,serif" font-size="14.00" fill="#000000">main ()</text>
</g>
<!-- fn_0_basic_block_0 -->
<g id="node1" class="node">
<title>fn_0_basic_block_0</title>
<polygon fill="#ffffff" stroke="#000000" points="84.2396,-384.2 22.9996,-366.2 84.2396,-348.2 145.4796,-366.2 84.2396,-384.2"/>
<polyline fill="none" stroke="#000000" points="34.5126,-369.584 34.5126,-362.816 "/>
<polyline fill="none" stroke="#000000" points="72.7266,-351.584 95.7526,-351.584 "/>
<polyline fill="none" stroke="#000000" points="133.9666,-362.816 133.9666,-369.584 "/>
<polyline fill="none" stroke="#000000" points="95.7526,-380.816 72.7266,-380.816 "/>
<text text-anchor="middle" x="84.2396" y="-362" font-family="Times,serif" font-size="14.00" fill="#000000">ENTRY</text>
</g>
<!-- fn_0_basic_block_1 -->
<g id="node2" class="node">
<title>fn_0_basic_block_1</title>
<polygon fill="#ffffff" stroke="#000000" points="85.2396,-52 38.3398,-34 85.2396,-16 132.1394,-34 85.2396,-52"/>
<polyline fill="none" stroke="#000000" points="49.543,-38.2998 49.543,-29.7002 "/>
<polyline fill="none" stroke="#000000" points="74.0364,-20.2998 96.4428,-20.2998 "/>
<polyline fill="none" stroke="#000000" points="120.9361,-29.7002 120.9361,-38.2998 "/>
<polyline fill="none" stroke="#000000" points="96.4428,-47.7002 74.0364,-47.7002 "/>
<text text-anchor="middle" x="85.2396" y="-29.8" font-family="Times,serif" font-size="14.00" fill="#000000">EXIT</text>
</g>
<!-- fn_0_basic_block_0&#45;&gt;fn_0_basic_block_1 -->
<!-- fn_0_basic_block_2 -->
<g id="node3" class="node">
<title>fn_0_basic_block_2</title>
<polygon fill="#d3d3d3" stroke="#000000" points="43.2924,-88.5 43.2924,-311.7 127.1868,-311.7 127.1868,-88.5 43.2924,-88.5"/>
<text text-anchor="start" x="51.2924" y="-295.1" font-family="Times,serif" font-size="14.00" fill="#000000">&lt;bb 2&gt;:</text>
<polyline fill="none" stroke="#000000" points="43.2924,-286.9 127.1868,-286.9 "/>
<text text-anchor="start" x="51.2924" y="-270.3" font-family="Times,serif" font-size="14.00" fill="#000000">p = 6;</text>
<polyline fill="none" stroke="#000000" points="43.2924,-262.1 127.1868,-262.1 "/>
<text text-anchor="start" x="51.2924" y="-245.5" font-family="Times,serif" font-size="14.00" fill="#000000">a = 10;</text>
<polyline fill="none" stroke="#000000" points="43.2924,-237.3 127.1868,-237.3 "/>
<text text-anchor="start" x="51.2924" y="-220.7" font-family="Times,serif" font-size="14.00" fill="#000000">b = 20;</text>
<polyline fill="none" stroke="#000000" points="43.2924,-212.5 127.1868,-212.5 "/>
<text text-anchor="start" x="51.2924" y="-195.9" font-family="Times,serif" font-size="14.00" fill="#000000">_1 = a * b;</text>
<polyline fill="none" stroke="#000000" points="43.2924,-187.7 127.1868,-187.7 "/>
<text text-anchor="start" x="51.2924" y="-171.1" font-family="Times,serif" font-size="14.00" fill="#000000">c = _1 + 25;</text>
<polyline fill="none" stroke="#000000" points="43.2924,-162.9 127.1868,-162.9 "/>
<text text-anchor="start" x="51.2924" y="-146.3" font-family="Times,serif" font-size="14.00" fill="#000000">p = 6;</text>
<polyline fill="none" stroke="#000000" points="43.2924,-138.1 127.1868,-138.1 "/>
<text text-anchor="start" x="51.2924" y="-121.5" font-family="Times,serif" font-size="14.00" fill="#000000">q = Z;</text>
<polyline fill="none" stroke="#000000" points="43.2924,-113.3 127.1868,-113.3 "/>
<text text-anchor="start" x="51.2924" y="-96.7" font-family="Times,serif" font-size="14.00" fill="#000000">return;</text>
</g>
<!-- fn_0_basic_block_0&#45;&gt;fn_0_basic_block_2 -->
<g id="edge1" class="edge">
<title>fn_0_basic_block_0:s-&gt;fn_0_basic_block_2:n</title>
<path fill="none" stroke="#0000ff" stroke-width="2" d="M84.2396,-348.2C84.2396,-336.1621 84.8021,-330.9032 85.0833,-322.2549"/>
<polygon fill="#0000ff" stroke="#0000ff" stroke-width="2" points="88.5852,-322.1527 85.2396,-312.1 81.586,-322.0449 88.5852,-322.1527"/>
</g>
<!-- fn_0_basic_block_2&#45;&gt;fn_0_basic_block_1 -->
<g id="edge2" class="edge">
<title>fn_0_basic_block_2:s-&gt;fn_0_basic_block_1:n</title>
<path fill="none" stroke="#000000" stroke-width="2" d="M85.2396,-88.1C85.2396,-76.0667 85.2396,-70.8021 85.2396,-62.1531"/>
<polygon fill="#000000" stroke="#000000" stroke-width="2" points="88.7397,-62 85.2396,-52 81.7397,-62 88.7397,-62"/>
</g>
</g>
</svg>